<?xml version="1.0" standalone="no"?>
<!DOCTYPE svg PUBLIC "-//W3C//DTD SVG 20010904//EN"
 "http://www.w3.org/TR/2001/REC-SVG-20010904/DTD/svg10.dtd">
<svg version="1.0" xmlns="http://www.w3.org/2000/svg"
 width="16.000000pt" height="16.000000pt" viewBox="0 0 16.000000 16.000000"
 preserveAspectRatio="xMidYMid meet">
<metadata>
Created by potrace 1.11, written by Peter Selinger 2001-2013
</metadata>
<g transform="translate(0.000000,16.000000) scale(0.003548,-0.003548)"
fill="#000000" stroke="none">
<path d="M2844 3450 c-67 -43 -105 -81 -160 -160 -20 -30 -73 -97 -117 -147
-65 -76 -96 -102 -171 -147 -50 -29 -108 -61 -129 -71 -33 -16 -127 -114 -127
-134 0 -15 120 -43 162 -38 68 8 142 36 187 69 13 10 26 18 30 18 3 0 5 -60 4
-132 -1 -114 10 -237 31 -353 3 -16 8 -43 11 -60 9 -48 45 -218 51 -236 4 -13
-7 -20 -48 -29 -29 -7 -95 -25 -145 -40 l-93 -28 -22 37 c-12 20 -73 103 -135
185 -135 178 -190 284 -206 393 l-12 78 -55 27 c-30 15 -62 28 -71 28 -22 0
-118 -105 -136 -149 -16 -37 -13 -77 7 -127 12 -28 5 -55 -88 -355 -167 -533
-214 -693 -214 -722 1 -34 24 -72 53 -88 37 -19 117 -19 178 0 115 36 183 103
217 214 l18 59 131 63 c153 74 222 105 233 105 4 0 14 -8 22 -17 15 -18 101
-125 123 -153 17 -23 89 -112 109 -135 9 -11 46 -56 83 -100 181 -218 275
-275 433 -267 62 4 63 4 84 45 11 23 20 53 20 67 -1 24 -87 374 -156 635 -19
71 -33 132 -30 134 2 2 86 22 186 43 173 38 259 65 273 88 10 16 -42 60 -72
61 -189 8 -279 5 -410 -16 -18 -3 -33 -2 -34 3 -1 12 -6 35 -27 117 -41 160
-56 284 -57 455 0 225 24 319 140 555 46 94 86 179 90 191 8 31 -24 65 -66 69
-27 2 -49 -5 -95 -35z m-754 -1571 c0 -3 -33 -19 -74 -36 l-74 -31 23 67 c39
112 32 107 81 54 24 -27 44 -51 44 -54z m589 -51 c10 -32 24 -82 81 -300 27
-102 28 -126 4 -110 -23 15 -305 374 -299 380 8 9 165 60 187 61 10 1 20 -11
27 -31z"/>
<path d="M880 2610 c-85 -63 -319 -165 -609 -265 -90 -31 -173 -63 -185 -73
-43 -32 -86 -98 -86 -131 0 -45 29 -68 126 -100 99 -33 188 -79 274 -140 62
-44 74 -53 130 -101 42 -36 118 -101 223 -190 58 -49 118 -110 141 -144 31
-44 51 -63 79 -72 l37 -13 0 32 c0 17 -7 51 -16 74 -15 39 -15 45 -2 61 23 25
16 52 -33 134 -80 133 -254 284 -454 393 -91 50 -148 85 -157 99 -10 15 15 28
273 145 239 107 309 146 335 187 17 25 21 67 9 104 -8 26 -51 26 -85 0z"/>
<path d="M3532 2599 c-11 -42 0 -84 30 -117 18 -19 332 -184 358 -187 31 -5
234 -109 233 -120 0 -9 -167 -115 -180 -115 -3 0 -44 -25 -91 -56 -160 -104
-264 -203 -337 -319 -55 -89 -63 -117 -38 -142 18 -18 18 -20 1 -59 -9 -21
-18 -54 -18 -72 0 -30 2 -32 28 -26 34 8 58 29 89 77 32 51 60 78 173 172 52
44 97 82 100 85 3 3 34 30 70 61 159 136 326 235 440 262 105 24 136 88 81
163 -45 63 -62 73 -197 120 -318 111 -490 183 -612 257 -35 21 -77 40 -92 44
-26 5 -30 2 -38 -28z"/>
</g>
</svg>
