<?xml version="1.0" standalone="no"?>
<!DOCTYPE svg PUBLIC "-//W3C//DTD SVG 20010904//EN"
 "http://www.w3.org/TR/2001/REC-SVG-20010904/DTD/svg10.dtd">
<svg version="1.0" xmlns="http://www.w3.org/2000/svg"
 width="16.000000pt" height="16.000000pt" viewBox="0 0 16.000000 16.000000"
 preserveAspectRatio="xMidYMid meet">
<metadata>
Created by potrace 1.11, written by Peter Selinger 2001-2013
</metadata>
<g transform="translate(0.000000,16.000000) scale(0.002286,-0.002286)"
fill="#000000" stroke="none">
<path d="M0 3500 l0 -3500 3500 0 3500 0 0 3500 0 3500 -3500 0 -3500 0 0
-3500z m6730 5 l0 -3225 -32 0 c-43 -1 -6262 -1 -6350 0 l-68 0 0 3225 0 3225
3225 0 3225 0 0 -3225z"/>
<path d="M2644 5792 c-17 -2 -22 -14 -32 -70 -6 -37 -14 -80 -17 -97 -19 -98
-79 -412 -90 -475 -7 -41 -43 -230 -80 -420 -36 -190 -82 -426 -100 -525 -19
-99 -37 -192 -40 -207 -3 -16 -7 -40 -10 -55 -3 -16 -10 -51 -16 -79 -5 -28
-12 -64 -15 -80 -2 -16 -7 -40 -9 -54 -3 -14 -7 -34 -9 -45 -2 -11 -14 -72
-26 -135 -12 -63 -24 -126 -27 -140 -2 -14 -22 -117 -43 -230 -22 -113 -41
-216 -44 -230 -2 -14 -18 -99 -36 -190 -18 -91 -34 -174 -36 -185 -47 -251
-88 -466 -99 -525 -13 -69 -28 -146 -40 -210 -17 -85 -55 -291 -60 -320 -3
-19 -8 -42 -10 -50 -2 -8 -7 -28 -9 -45 -3 -16 -14 -72 -24 -123 -10 -51 -16
-94 -13 -96 5 -2 455 1 473 3 5 1 7 4 6 8 -2 7 9 88 17 123 2 8 5 29 8 45 15
84 21 120 22 125 0 3 4 27 9 53 4 27 9 56 11 65 19 104 35 194 39 226 3 21 8
46 10 55 3 9 8 34 11 56 3 22 11 69 18 104 l12 63 555 -1 c305 0 567 0 581 -1
23 0 27 -5 33 -42 4 -24 20 -110 36 -193 16 -82 31 -161 34 -175 2 -14 14 -71
25 -128 11 -56 23 -117 26 -135 3 -17 12 -63 20 -102 8 -38 17 -86 20 -105 3
-19 8 -37 11 -40 4 -3 654 -8 654 -4 0 0 14 70 31 155 16 85 32 165 34 179 2
14 15 84 29 155 13 72 28 146 31 165 3 19 12 67 20 105 8 39 17 88 20 110 4
22 10 56 15 75 5 19 16 76 24 125 17 93 22 123 31 165 6 30 2 7 71 370 30 162
61 327 69 365 8 39 17 86 20 105 3 19 12 67 20 105 8 39 26 131 40 205 14 74
27 145 29 156 3 12 7 37 10 55 3 19 8 43 10 54 8 40 67 341 72 370 3 17 30
161 60 320 31 160 58 301 60 315 6 31 61 325 69 363 3 15 7 39 10 55 19 94 66
343 70 371 3 19 7 37 9 40 2 3 7 29 10 56 l7 50 -133 -1 c-73 -1 -136 -2 -139
-3 -4 -1 -10 -18 -13 -38 -4 -21 -24 -130 -46 -243 -22 -113 -41 -216 -44
-230 -4 -27 -28 -149 -87 -455 -21 -110 -40 -211 -43 -225 -8 -49 -58 -306
-71 -370 -11 -53 -36 -187 -61 -330 -3 -14 -14 -70 -25 -125 -11 -55 -22 -113
-25 -130 -3 -16 -16 -84 -29 -150 -13 -66 -27 -136 -30 -155 -5 -30 -17 -90
-49 -260 -3 -14 -10 -52 -16 -85 -6 -33 -20 -103 -30 -155 -11 -52 -22 -111
-25 -130 -3 -19 -8 -42 -10 -50 -2 -8 -7 -31 -10 -50 -5 -28 -34 -185 -60
-320 -3 -14 -18 -95 -34 -180 -17 -85 -32 -167 -35 -182 -3 -15 -12 -63 -20
-105 -9 -43 -18 -91 -21 -108 -30 -160 -28 -152 -36 -120 -5 16 -11 43 -13 60
-5 28 -40 214 -66 345 -6 30 -13 69 -16 85 -3 17 -9 48 -14 70 -5 22 -12 56
-15 75 -8 51 -62 332 -97 510 -17 85 -31 164 -33 175 -1 11 -12 67 -23 125
-12 58 -24 121 -27 140 -3 19 -12 67 -20 105 -24 122 -47 239 -51 265 -2 14
-17 93 -33 175 -17 83 -33 169 -36 190 -4 22 -10 56 -15 75 -5 19 -11 52 -14
73 -3 21 -22 118 -41 217 -66 340 -104 535 -114 595 -6 33 -13 71 -16 85 -6
26 -41 213 -51 265 -7 38 -61 317 -80 412 -7 39 -17 89 -20 110 -3 21 -8 40
-10 42 -5 5 -687 8 -720 3z m391 -952 c26 -129 49 -246 51 -260 2 -14 9 -47
14 -75 18 -89 20 -100 25 -124 2 -14 9 -47 15 -75 6 -28 12 -60 14 -71 2 -11
18 -90 35 -175 16 -85 33 -171 36 -190 3 -19 10 -51 15 -70 5 -19 12 -51 15
-70 3 -19 10 -57 15 -85 6 -27 12 -61 15 -75 3 -14 9 -47 15 -75 6 -27 12 -61
15 -75 3 -14 7 -36 10 -50 2 -14 7 -36 9 -50 3 -14 14 -72 26 -130 12 -58 24
-116 26 -130 3 -14 16 -79 29 -145 13 -66 27 -135 30 -153 3 -18 12 -64 20
-103 8 -39 15 -74 15 -78 0 -4 -229 -8 -510 -8 -569 0 -518 -7 -500 72 5 22
12 56 15 75 3 19 17 91 30 160 13 69 26 140 30 158 3 18 23 126 45 240 23 114
43 223 46 242 3 19 9 53 14 75 5 22 12 56 15 75 3 19 15 82 27 140 11 58 22
116 24 130 3 14 18 93 34 175 16 83 32 166 35 185 3 19 12 67 20 105 12 61 20
104 41 215 2 14 11 60 20 103 8 42 17 90 20 105 3 15 12 63 20 107 8 44 17 91
20 105 16 91 26 137 31 150 6 16 7 9 78 -350z"/>
</g>
</svg>
